HIERARCHY
ROOT Hips
{
  OFFSET 43.0842 91.1655 101.099
  CHANNELS 6 Xposition Yposition Zposition Zrotation Xrotation Yrotation
  JOINT LeftUpLeg
  {
    OFFSET 8.64259 1.95398 -2.38835
    CHANNELS 3 Zrotation Xrotation Yrotation
    JOINT LeftLeg
    {
      OFFSET 43.7702 0 0
      CHANNELS 3 Zrotation Xrotation Yrotation
      JOINT LeftFoot
      {
        OFFSET 40.6238 0 0
        CHANNELS 3 Zrotation Xrotation Yrotation
        JOINT LeftToeBase
        {
          OFFSET 12.7242 0 0
          CHANNELS 3 Zrotation Xrotation Yrotation
          End Site
          {
            OFFSET 0 0 0
          }
        }
      }
    }
  }
  JOINT RightUpLeg
  {
    OFFSET -8.2249 1.95398 -2.59336
    CHANNELS 3 Zrotation Xrotation Yrotation
    JOINT RightLeg
    {
      OFFSET 43.5653 0 0
      CHANNELS 3 Zrotation Xrotation Yrotation
      JOINT RightFoot
      {
        OFFSET 40.6238 0 0
        CHANNELS 3 Zrotation Xrotation Yrotation
        JOINT RightToeBase
        {
          OFFSET 12.7242 0 0
          CHANNELS 3 Zrotation Xrotation Yrotation
          End Site
          {
            OFFSET 0 0 0
          }
        }
      }
    }
  }
  JOINT Spine
  {
    OFFSET 0.165834 0.87714 6.61349
    CHANNELS 3 Zrotation Xrotation Yrotation
    JOINT Spine1
    {
      OFFSET 7.38963 1.71661e-005 0
      CHANNELS 3 Zrotation Xrotation Yrotation
      JOINT Spine2
      {
        OFFSET 11.9445 1.14441e-005 0
        CHANNELS 3 Zrotation Xrotation Yrotation
        JOINT Spine3
        {
          OFFSET 14.7254 4.19617e-005 0
          CHANNELS 3 Zrotation Xrotation Yrotation
          JOINT Spine4
          {
            OFFSET 10.9679 0 0
            CHANNELS 3 Zrotation Xrotation Yrotation
            JOINT RightShoulder
            {
              OFFSET 2.46616 -1.6653 3.69651
              CHANNELS 3 Zrotation Xrotation Yrotation
              JOINT RightArm
              {
                OFFSET 13.0012 0 0
                CHANNELS 3 Zrotation Xrotation Yrotation
                JOINT RightForeArm
                {
                  OFFSET 28.7848 1.52588e-005 0
                  CHANNELS 3 Zrotation Xrotation Yrotation
                  JOINT RightHand
                  {
                    OFFSET 26.5688 1.52588e-005 0
                    CHANNELS 3 Zrotation Xrotation Yrotation
                    End Site
                    {
                      OFFSET 0 0 0
                    }
                  }
                }
              }
            }
            JOINT LeftShoulder
            {
              OFFSET 2.38034 -1.29275 -3.7523
              CHANNELS 3 Zrotation Xrotation Yrotation
              JOINT LeftArm
              {
                OFFSET 16.3182 6.10351e-005 0
                CHANNELS 3 Zrotation Xrotation Yrotation
                JOINT LeftForeArm
                {
                  OFFSET 27.0901 0 0
                  CHANNELS 3 Zrotation Xrotation Yrotation
                  JOINT LeftHand
                  {
                    OFFSET 24.5451 1.52588e-005 0
                    CHANNELS 3 Zrotation Xrotation Yrotation
                    End Site
                    {
                      OFFSET 0 0 0
                    }
                  }
                }
              }
            }
            JOINT Neck
            {
              OFFSET 5.0226 -0.0266342 0
              CHANNELS 3 Zrotation Xrotation Yrotation
              JOINT Head
              {
                OFFSET 6.69364 2.86102e-005 0
                CHANNELS 3 Zrotation Xrotation Yrotation
                End Site
                {
                  OFFSET 0 0 0
                }
              }
            }
          }
        }
      }
    }
  }
}
MOTION
Frames:	10
Frame Time:	0.0333333
23.6584 80.9862 182.705 -78.1889 -53.0861 -75.8987 -166.172 -10.0597 93.6223 -34.072 11.136 -6.10514 64.1344 5.55931 22.7494 41.9535 4.3793 26.5719 -178.207 57.8536 107.753 -69.9314 -15.3275 -2.35329 68.9367 -6.90673 4.30909 27.6109 -1.54264 6.00717 -3.78115 7.95233 -89.4901 11.0414 -7.29087 1.71481 -0.610558 -7.20832 2.03557 -23.3109 -7.4673 -0.568049 -3.29826 -7.46731 -0.568058 96.7121 -57.0998 -89.7566 20.033 -32.0578 1.53778 16.2755 -6.37499 -138.868 9.69115 3.33565 -1.9256 -101.421 -52.1183 62.7643 -1.89186 31.903 -22.7895 -8.58208 4.25624 -97.2553 -6.75994 -1.54655 0.073378 4.86352 14.5784 1.28559 -11.6273 13.3567 12.3388 
23.483 80.4748 182.883 -77.8627 -54.3841 -76.086 -165.883 -9.42791 94.1317 -36.3366 14.083 -5.46252 63.6861 5.45228 22.0793 42.7609 5.81432 26.8551 -178.573 56.869 106.223 -69.3514 -9.7181 -2.17092 72.8108 -9.8053 9.09727 30.9492 -4.08594 8.83985 -3.46323 7.99186 -89.6136 10.9472 -6.71625 1.40572 -0.707376 -6.64788 1.70118 -23.3825 -6.82678 -0.687389 -3.36983 -6.82678 -0.687399 96.3472 -57.7336 -90.2144 19.9856 -30.4594 3.40879 15.689 -6.20368 -138.593 9.14413 3.44641 -0.805515 -100.514 -51.5363 63.8321 -3.29007 33.6843 -17.6625 -6.76172 1.9626 -98.6086 -4.94302 -1.60812 1.40408 2.30364 12.4618 1.99317 -10.2265 11.3185 13.1403 
23.2283 80.0073 182.85 -76.6292 -56.8102 -75.2582 -165.535 -8.46315 95.0682 -37.6836 14.5283 -5.00603 64.0467 6.29117 21.4848 43.0414 6.53048 26.5808 179.66 56.5407 105.933 -69.2891 -9.79328 -1.64039 74.7252 -11.2996 6.78645 31.6128 -4.54014 9.36175 -3.32355 7.98457 -89.8155 10.9474 -6.53136 0.986083 -0.707733 -6.48161 1.27375 -23.3738 -6.52445 -1.03109 -3.36113 -6.52444 -1.0311 96.3405 -57.1155 -90.2851 18.6357 -29.8627 1.78332 14.5972 -5.28585 -137.841 8.58963 3.35457 -0.537184 -99.5648 -51.0819 65.0234 -4.77772 28.7289 -11.956 -9.8958 3.40081 -101.219 -6.78955 -2.28112 2.84187 1.13179 11.4381 3.37592 -9.80864 10.1511 13.7018 
23.0574 80.0084 182.643 -76.6457 -59.3945 -75.6714 -165.565 -9.01176 95.4669 -36.7247 11.9728 -4.64413 64.5437 7.17513 21.0457 42.9863 7.12056 25.3593 179.544 56.5558 104.784 -70.2344 -9.72129 -1.91763 73.8428 -10.592 6.92616 31.9414 -4.3719 8.32003 -3.21911 8.0341 -89.8926 10.8419 -6.35992 0.807737 -0.813903 -6.31818 1.08795 -23.4724 -6.30745 -1.1489 -3.45971 -6.30743 -1.14891 95.9654 -56.754 -90.8576 15.7256 -26.8994 -1.67282 14.1119 -6.28275 -136.326 7.68492 3.2551 0.148475 -98.3421 -50.3726 66.5393 -4.65695 22.5467 -7.39107 -9.16595 4.05678 -104.893 -4.89257 -2.16212 3.71502 0.145931 10.4629 4.26572 -8.68326 9.24208 13.3999 
22.4213 79.931 182.292 -75.6407 -62.2658 -74.6287 -164.919 -8.63873 97.2289 -35.9077 10.853 -4.62513 65.2681 7.91804 21.5187 42.7146 7.41495 23.8978 179.916 55.846 104.51 -69.4751 -8.67649 -1.99075 74.9166 -11.5857 4.11246 32.561 -4.65345 8.31866 -3.00643 8.04285 -90.0144 10.8144 -5.99303 0.529328 -0.842908 -5.96391 0.793508 -23.4863 -5.87405 -1.30274 -3.47363 -5.87404 -1.30274 95.8753 -56.6038 -91.0024 13.9955 -22.491 -3.94959 14.1661 -7.07483 -135.12 7.20358 3.16697 0.369986 -96.7528 -49.3523 68.5223 -2.43685 16.6604 -7.32347 -5.38309 3.40147 -107.779 -4.72108 -2.19763 3.9905 -1.48734 8.97289 4.71233 -7.23275 7.95528 13.1517 
21.8821 80.3061 181.683 -71.6729 -67.3759 -71.2648 -164.787 -7.08427 98.802 -34.9022 9.67269 -4.09098 65.7669 8.84586 20.6408 42.2359 7.20589 22.6723 179.801 54.9348 102.633 -67.5521 -5.54665 -1.89483 76.3835 -12.8099 3.13347 33.4815 -4.9451 7.88428 -2.88605 7.98186 -90.1387 10.9288 -5.81002 0.273657 -0.729179 -5.79234 0.529969 -23.3644 -5.62277 -1.49084 -3.35173 -5.62278 -1.49084 96.319 -56.0602 -90.4222 13.5665 -17.7643 -5.31348 12.7531 -6.51546 -134.996 5.82794 2.85087 0.71869 -95.0371 -47.891 70.6169 -0.28504 10.4142 -9.9336 -6.61727 5.17513 -109.867 -4.10991 -2.06949 3.96082 -3.28561 7.0113 5.13843 -6.21845 6.1738 12.3615 
21.4442 80.8455 180.934 -65.5237 -73.3732 -65.8805 -165.037 -5.29446 100.182 -33.9786 9.75358 -3.51833 65.9848 8.89704 19.809 42.0906 7.50298 21.6291 179.238 53.447 100.101 -65.2063 -2.69089 -1.6989 77.5412 -13.8996 2.02502 35.2135 -5.18513 5.79414 -2.78146 7.92475 -90.2037 11.0388 -5.63135 0.135343 -0.62001 -5.61992 0.383863 -23.2481 -5.41087 -1.56845 -3.23543 -5.41088 -1.56844 96.1248 -56.1161 -90.6962 12.6226 -11.8582 -6.46321 13.2148 -7.84431 -134.591 4.38055 2.54185 1.25428 -93.4476 -46.4175 72.5946 0.697774 3.72103 -14.0648 -7.13704 7.06072 -111.793 -2.38628 -2.04816 5.27391 -6.5322 4.80458 5.21409 -4.30227 4.33959 11.5742 
21.2871 81.6602 179.994 -53.392 -79.0363 -54.6659 -165.264 -3.16532 100.921 -33.0493 8.05324 -3.40243 66.385 9.11533 18.8389 41.358 7.28075 19.6572 178.167 51.6846 97.3101 -62.0951 -0.498348 -1.16561 77.9991 -14.6077 0.248095 38.0556 -5.31864 0.842629 -2.6046 7.88428 -90.2921 11.1146 -5.31993 -0.064355 -0.545435 -5.31758 0.170515 -23.1621 -5.05397 -1.66438 -3.14941 -5.05397 -1.66439 96.2299 -55.6767 -90.5903 11.6581 -4.35679 -8.55156 11.9241 -8.74754 -133.464 3.6867 2.44964 1.86141 -92.7451 -45.5213 73.4253 1.31071 -2.89575 -20.086 -5.8785 8.90665 -112.198 -1.03012 -1.5581 4.26386 -8.7043 2.78568 5.02927 -3.64597 2.51316 11.6079 
21.198 82.7366 178.901 -21.1587 -83.0686 -23.0697 -165.235 -0.0956464 101.526 -32.4639 5.8322 -3.94324 66.311 8.21484 17.8162 40.8051 7.5534 17.3327 176.309 49.9605 94.7153 -58.2599 1.33865 -0.0943524 78.4135 -15.3674 -1.68312 40.1756 -5.1569 -4.6974 -2.39795 7.79257 -90.514 11.2853 -5.01132 -0.526244 -0.376018 -5.02962 -0.304627 -22.9789 -4.62101 -2.01113 -2.96625 -4.62102 -2.01114 96.2817 -53.6114 -90.7329 11.8404 3.54243 -11.0608 9.92684 -9.4116 -132.291 2.58289 2.30339 2.94026 -92.717 -45.8811 73.571 -0.316849 -8.67073 -26.6034 -4.54195 11.0253 -112.251 -0.351909 -1.38719 4.04819 -11.2593 0.117182 6.90383 -1.48556 0.0308446 8.77073 
21.1475 83.992 177.638 31.4733 -83.2723 29.1017 -164.555 2.38757 101.709 -32.1362 3.99307 -5.05097 66.663 8.51982 15.3571 40.6953 6.47277 19.0367 173.759 47.8908 92.2948 -54.7365 1.91619 1.35288 77.2703 -14.5769 -3.24084 42.5297 -5.70184 -8.57726 -2.16206 7.7781 -90.609 11.3089 -4.58615 -0.755899 -0.354025 -4.61496 -0.552905 -22.943 -4.14663 -2.10145 -2.93035 -4.14662 -2.10146 95.9518 -53.3663 -91.2506 11.7325 11.4607 -14.0156 8.56278 -10.3159 -131.045 1.18636 2.0561 4.04454 -92.4555 -45.2711 73.8075 -4.07102 -13.9343 -33.6186 -3.10749 14.1331 -111.716 0.60697 -0.963298 2.79628 -12.5381 -1.84679 5.88467 -1.53724 -1.85632 7.86814 
